<?xml version="1.0" encoding="utf-8"?>
<!-- Generator: Adobe Illustrator 25.2.0, SVG Export Plug-In . SVG Version: 6.00 Build 0)  -->
<svg version="1.1" id="Layer_1" xmlns="http://www.w3.org/2000/svg" xmlns:xlink="http://www.w3.org/1999/xlink" x="0px" y="0px"
	 viewBox="0 0 1366 768" style="enable-background:new 0 0 1366 768;" xml:space="preserve">
<style type="text/css">
	.st0{fill:#FFFFFF;}
</style>
<g>
	<g>
		<path class="st0" d="M831,469c-98.7,0-197.35,0-296,0c0-56.99,0-113.97,0-171c98.63,0,197.26,0,296,0
			C831,354.87,831,411.78,831,469z M643.06,382.09c24.53,24.58,49.3,49.41,73.1,73.27c2.3-1.64,4.83-3.44,7.73-5.5
			c-22.91-22.82-45.32-45.16-68.06-67.82c22.63-22.57,45.13-45,67.26-67.07c-2.3-2.77-4.26-5.11-5.82-6.99
			C692.07,333.13,667.32,357.85,643.06,382.09z"/>
		<path d="M643.06,382.09c24.27-24.24,49.01-48.95,74.21-74.12c1.57,1.88,3.52,4.23,5.82,6.99c-22.13,22.07-44.63,44.5-67.26,67.07
			c22.74,22.66,45.15,44.99,68.06,67.82c-2.89,2.06-5.43,3.87-7.73,5.5C692.35,431.5,667.59,406.67,643.06,382.09z"/>
	</g>
</g>
</svg>
