<?xml version="1.0" encoding="utf-8"?>
<!-- Generator: Adobe Illustrator 25.2.0, SVG Export Plug-In . SVG Version: 6.00 Build 0)  -->
<svg version="1.1" id="Layer_1" xmlns="http://www.w3.org/2000/svg" xmlns:xlink="http://www.w3.org/1999/xlink" x="0px" y="0px"
	 viewBox="0 0 1366 768" style="enable-background:new 0 0 1366 768;" xml:space="preserve">
<style type="text/css">
	.st0{fill:#FFFFFF;}
</style>
<g>
	<g>
		<path class="st0" d="M535,298c98.7,0,197.35,0,296,0c0,56.99,0,113.97,0,171c-98.63,0-197.26,0-296,0
			C535,412.13,535,355.22,535,298z M722.94,384.91c-24.53-24.58-49.3-49.41-73.1-73.27c-2.3,1.64-4.83,3.44-7.73,5.5
			c22.91,22.82,45.32,45.16,68.06,67.82c-22.63,22.57-45.13,45-67.26,67.07c2.3,2.77,4.26,5.11,5.82,6.99
			C673.93,433.87,698.68,409.15,722.94,384.91z"/>
		<path d="M722.94,384.91c-24.27,24.24-49.01,48.95-74.21,74.12c-1.57-1.88-3.52-4.23-5.82-6.99c22.13-22.07,44.63-44.5,67.26-67.07
			c-22.74-22.66-45.15-44.99-68.06-67.82c2.89-2.06,5.43-3.87,7.73-5.5C673.65,335.5,698.41,360.33,722.94,384.91z"/>
	</g>
</g>
</svg>
